<svg xmlns="http://www.w3.org/2000/svg" xmlns:xlink="http://www.w3.org/1999/xlink" width="500" zoomAndPan="magnify" viewBox="0 0 375 374.999991" height="500" preserveAspectRatio="xMidYMid meet" version="1.2"><defs><linearGradient x1="0" gradientTransform="matrix(0.75,0,0,0.75,0.0000045,0)" y1="250" x2="499.999979" gradientUnits="userSpaceOnUse" y2="250" id="bd3b11fb01"><stop style="stop-color:#000000;stop-opacity:1;" offset="0"/><stop style="stop-color:#000000;stop-opacity:1;" offset="0.0078125"/><stop style="stop-color:#010101;stop-opacity:1;" offset="0.015625"/><stop style="stop-color:#020202;stop-opacity:1;" offset="0.0234375"/><stop style="stop-color:#030303;stop-opacity:1;" offset="0.03125"/><stop style="stop-color:#040404;stop-opacity:1;" offset="0.0390625"/><stop style="stop-color:#050505;stop-opacity:1;" offset="0.046875"/><stop style="stop-color:#060606;stop-opacity:1;" offset="0.0546875"/><stop style="stop-color:#070707;stop-opacity:1;" offset="0.0625"/><stop style="stop-color:#080808;stop-opacity:1;" offset="0.0703125"/><stop style="stop-color:#090909;stop-opacity:1;" offset="0.078125"/><stop style="stop-color:#090909;stop-opacity:1;" offset="0.0859375"/><stop style="stop-color:#0a0a0a;stop-opacity:1;" offset="0.09375"/><stop style="stop-color:#0b0b0b;stop-opacity:1;" offset="0.101562"/><stop style="stop-color:#0c0c0c;stop-opacity:1;" offset="0.109375"/><stop style="stop-color:#0d0d0d;stop-opacity:1;" offset="0.117188"/><stop style="stop-color:#0e0e0e;stop-opacity:1;" offset="0.125"/><stop style="stop-color:#0f0f0f;stop-opacity:1;" offset="0.132812"/><stop style="stop-color:#101010;stop-opacity:1;" offset="0.140625"/><stop style="stop-color:#111111;stop-opacity:1;" offset="0.148437"/><stop style="stop-color:#121212;stop-opacity:1;" offset="0.15625"/><stop style="stop-color:#121212;stop-opacity:1;" offset="0.164062"/><stop style="stop-color:#131313;stop-opacity:1;" offset="0.171875"/><stop style="stop-color:#141414;stop-opacity:1;" offset="0.179687"/><stop style="stop-color:#151515;stop-opacity:1;" offset="0.1875"/><stop style="stop-color:#161616;stop-opacity:1;" offset="0.195312"/><stop style="stop-color:#171717;stop-opacity:1;" offset="0.203125"/><stop style="stop-color:#181818;stop-opacity:1;" offset="0.210938"/><stop style="stop-color:#191919;stop-opacity:1;" offset="0.21875"/><stop style="stop-color:#1a1a1a;stop-opacity:1;" offset="0.226562"/><stop style="stop-color:#1b1b1b;stop-opacity:1;" offset="0.234375"/><stop style="stop-color:#1b1b1b;stop-opacity:1;" offset="0.242188"/><stop style="stop-color:#1c1c1c;stop-opacity:1;" offset="0.25"/><stop style="stop-color:#1d1d1d;stop-opacity:1;" offset="0.257812"/><stop style="stop-color:#1e1e1e;stop-opacity:1;" offset="0.265625"/><stop style="stop-color:#1f1f1f;stop-opacity:1;" offset="0.273437"/><stop style="stop-color:#202020;stop-opacity:1;" offset="0.28125"/><stop style="stop-color:#212121;stop-opacity:1;" offset="0.289062"/><stop style="stop-color:#222222;stop-opacity:1;" offset="0.296875"/><stop style="stop-color:#232323;stop-opacity:1;" offset="0.304687"/><stop style="stop-color:#232323;stop-opacity:1;" offset="0.3125"/><stop style="stop-color:#242424;stop-opacity:1;" offset="0.320312"/><stop style="stop-color:#252525;stop-opacity:1;" offset="0.328125"/><stop style="stop-color:#262626;stop-opacity:1;" offset="0.335937"/><stop style="stop-color:#272727;stop-opacity:1;" offset="0.34375"/><stop style="stop-color:#282828;stop-opacity:1;" offset="0.351562"/><stop style="stop-color:#292929;stop-opacity:1;" offset="0.359375"/><stop style="stop-color:#2a2a2a;stop-opacity:1;" offset="0.367187"/><stop style="stop-color:#2b2b2b;stop-opacity:1;" offset="0.375"/><stop style="stop-color:#2c2c2c;stop-opacity:1;" offset="0.382812"/><stop style="stop-color:#2c2c2c;stop-opacity:1;" offset="0.390625"/><stop style="stop-color:#2d2d2d;stop-opacity:1;" offset="0.398438"/><stop style="stop-color:#2e2e2e;stop-opacity:1;" offset="0.40625"/><stop style="stop-color:#2f2f2f;stop-opacity:1;" offset="0.414062"/><stop style="stop-color:#303030;stop-opacity:1;" offset="0.421875"/><stop style="stop-color:#313131;stop-opacity:1;" offset="0.429688"/><stop style="stop-color:#323232;stop-opacity:1;" offset="0.4375"/><stop style="stop-color:#333333;stop-opacity:1;" offset="0.445312"/><stop style="stop-color:#343434;stop-opacity:1;" offset="0.453125"/><stop style="stop-color:#353535;stop-opacity:1;" offset="0.460938"/><stop style="stop-color:#353535;stop-opacity:1;" offset="0.46875"/><stop style="stop-color:#363636;stop-opacity:1;" offset="0.476562"/><stop style="stop-color:#373737;stop-opacity:1;" offset="0.484375"/><stop style="stop-color:#383838;stop-opacity:1;" offset="0.492188"/><stop style="stop-color:#393939;stop-opacity:1;" offset="0.5"/><stop style="stop-color:#3a3a3a;stop-opacity:1;" offset="0.507812"/><stop style="stop-color:#3b3b3b;stop-opacity:1;" offset="0.515625"/><stop style="stop-color:#3c3c3c;stop-opacity:1;" offset="0.523437"/><stop style="stop-color:#3d3d3d;stop-opacity:1;" offset="0.53125"/><stop style="stop-color:#3e3e3e;stop-opacity:1;" offset="0.539062"/><stop style="stop-color:#3e3e3e;stop-opacity:1;" offset="0.546875"/><stop style="stop-color:#3f3f3f;stop-opacity:1;" offset="0.554687"/><stop style="stop-color:#404040;stop-opacity:1;" offset="0.5625"/><stop style="stop-color:#414141;stop-opacity:1;" offset="0.570312"/><stop style="stop-color:#424242;stop-opacity:1;" offset="0.578125"/><stop style="stop-color:#434343;stop-opacity:1;" offset="0.585937"/><stop style="stop-color:#444444;stop-opacity:1;" offset="0.59375"/><stop style="stop-color:#454545;stop-opacity:1;" offset="0.601562"/><stop style="stop-color:#464646;stop-opacity:1;" offset="0.609375"/><stop style="stop-color:#474747;stop-opacity:1;" offset="0.617187"/><stop style="stop-color:#474747;stop-opacity:1;" offset="0.625"/><stop style="stop-color:#484848;stop-opacity:1;" offset="0.632812"/><stop style="stop-color:#494949;stop-opacity:1;" offset="0.640625"/><stop style="stop-color:#4a4a4a;stop-opacity:1;" offset="0.648437"/><stop style="stop-color:#4b4b4b;stop-opacity:1;" offset="0.65625"/><stop style="stop-color:#4c4c4c;stop-opacity:1;" offset="0.664062"/><stop style="stop-color:#4d4d4d;stop-opacity:1;" offset="0.671875"/><stop style="stop-color:#4e4e4e;stop-opacity:1;" offset="0.679687"/><stop style="stop-color:#4f4f4f;stop-opacity:1;" offset="0.6875"/><stop style="stop-color:#505050;stop-opacity:1;" offset="0.695312"/><stop style="stop-color:#505050;stop-opacity:1;" offset="0.703125"/><stop style="stop-color:#515151;stop-opacity:1;" offset="0.710937"/><stop style="stop-color:#525252;stop-opacity:1;" offset="0.71875"/><stop style="stop-color:#535353;stop-opacity:1;" offset="0.726562"/><stop style="stop-color:#545454;stop-opacity:1;" offset="0.734375"/><stop style="stop-color:#555555;stop-opacity:1;" offset="0.742187"/><stop style="stop-color:#565656;stop-opacity:1;" offset="0.75"/><stop style="stop-color:#575757;stop-opacity:1;" offset="0.757812"/><stop style="stop-color:#585858;stop-opacity:1;" offset="0.765625"/><stop style="stop-color:#585858;stop-opacity:1;" offset="0.773438"/><stop style="stop-color:#595959;stop-opacity:1;" offset="0.78125"/><stop style="stop-color:#5a5a5a;stop-opacity:1;" offset="0.789062"/><stop style="stop-color:#5b5b5b;stop-opacity:1;" offset="0.796875"/><stop style="stop-color:#5c5c5c;stop-opacity:1;" offset="0.804688"/><stop style="stop-color:#5d5d5d;stop-opacity:1;" offset="0.8125"/><stop style="stop-color:#5e5e5e;stop-opacity:1;" offset="0.820312"/><stop style="stop-color:#5f5f5f;stop-opacity:1;" offset="0.828125"/><stop style="stop-color:#606060;stop-opacity:1;" offset="0.835938"/><stop style="stop-color:#616161;stop-opacity:1;" offset="0.84375"/><stop style="stop-color:#616161;stop-opacity:1;" offset="0.851562"/><stop style="stop-color:#626262;stop-opacity:1;" offset="0.859375"/><stop style="stop-color:#636363;stop-opacity:1;" offset="0.867188"/><stop style="stop-color:#646464;stop-opacity:1;" offset="0.875"/><stop style="stop-color:#656565;stop-opacity:1;" offset="0.882812"/><stop style="stop-color:#666666;stop-opacity:1;" offset="0.890625"/><stop style="stop-color:#676767;stop-opacity:1;" offset="0.898438"/><stop style="stop-color:#686868;stop-opacity:1;" offset="0.90625"/><stop style="stop-color:#696969;stop-opacity:1;" offset="0.914062"/><stop style="stop-color:#6a6a6a;stop-opacity:1;" offset="0.921875"/><stop style="stop-color:#6a6a6a;stop-opacity:1;" offset="0.929688"/><stop style="stop-color:#6b6b6b;stop-opacity:1;" offset="0.9375"/><stop style="stop-color:#6c6c6c;stop-opacity:1;" offset="0.945312"/><stop style="stop-color:#6d6d6d;stop-opacity:1;" offset="0.953125"/><stop style="stop-color:#6e6e6e;stop-opacity:1;" offset="0.960938"/><stop style="stop-color:#6f6f6f;stop-opacity:1;" offset="0.96875"/><stop style="stop-color:#707070;stop-opacity:1;" offset="0.976562"/><stop style="stop-color:#717171;stop-opacity:1;" offset="0.984375"/><stop style="stop-color:#727272;stop-opacity:1;" offset="0.992188"/><stop style="stop-color:#737373;stop-opacity:1;" offset="1"/></linearGradient><clipPath id="e94a91099b"><path d="M 157.214844 132 L 178 132 L 178 162 L 157.214844 162 Z M 157.214844 132 "/></clipPath><clipPath id="eef7e22125"><path d="M 157.214844 131 L 179 131 L 179 163 L 157.214844 163 Z M 157.214844 131 "/></clipPath><clipPath id="3ea32107bd"><path d="M 197 132 L 217.964844 132 L 217.964844 162 L 197 162 Z M 197 132 "/></clipPath><clipPath id="627997a38c"><path d="M 196 131 L 217.964844 131 L 217.964844 163 L 196 163 Z M 196 131 "/></clipPath><clipPath id="58bebbc9be"><path d="M 176 123.375 L 198 123.375 L 198 170.625 L 176 170.625 Z M 176 123.375 "/></clipPath><clipPath id="65da56aa13"><path d="M 54 70.253906 L 321 70.253906 L 321 336 L 54 336 Z M 54 70.253906 "/></clipPath></defs><g id="a4dc93476c"><rect x="0" width="375" y="0" height="374.999991" style="fill:url(#linear0);stroke:none;"/><g clip-rule="nonzero" clip-path="url(#e94a91099b)"><path style=" stroke:none;fill-rule:nonzero;fill:#03fa6e;fill-opacity:1;" d="M 176.320312 161.707031 C 175.988281 161.707031 175.65625 161.59375 175.394531 161.386719 L 158.457031 148.058594 C 158.09375 147.773438 157.882812 147.34375 157.882812 146.882812 C 157.882812 146.417969 158.09375 145.988281 158.457031 145.703125 L 175.394531 132.378906 C 175.65625 132.167969 175.988281 132.058594 176.320312 132.058594 C 176.785156 132.058594 177.214844 132.261719 177.5 132.628906 C 177.746094 132.941406 177.859375 133.335938 177.8125 133.734375 C 177.765625 134.132812 177.5625 134.488281 177.25 134.734375 L 161.8125 146.882812 L 177.25 159.027344 C 177.5625 159.277344 177.765625 159.632812 177.8125 160.027344 C 177.859375 160.425781 177.746094 160.816406 177.5 161.136719 C 177.214844 161.496094 176.785156 161.707031 176.320312 161.707031 "/></g><g clip-rule="nonzero" clip-path="url(#eef7e22125)"><path style=" stroke:none;fill-rule:nonzero;fill:#004aad;fill-opacity:1;" d="M 176.320312 131.417969 C 175.84375 131.417969 175.375 131.578125 175 131.875 L 158.0625 145.199219 C 157.542969 145.613281 157.246094 146.222656 157.246094 146.882812 C 157.246094 147.542969 157.542969 148.15625 158.0625 148.5625 L 175 161.886719 C 175.375 162.183594 175.84375 162.347656 176.320312 162.347656 C 176.984375 162.347656 177.597656 162.046875 178.003906 161.527344 C 178.359375 161.082031 178.511719 160.523438 178.445312 159.953125 C 178.378906 159.386719 178.09375 158.878906 177.644531 158.527344 L 162.84375 146.882812 L 177.644531 135.238281 C 178.09375 134.882812 178.378906 134.375 178.445312 133.808594 C 178.511719 133.242188 178.359375 132.683594 178.003906 132.234375 C 177.597656 131.714844 176.980469 131.417969 176.320312 131.417969 Z M 176.320312 132.695312 C 176.578125 132.695312 176.828125 132.808594 177 133.023438 C 177.292969 133.398438 177.226562 133.941406 176.855469 134.234375 L 160.777344 146.882812 L 176.855469 159.53125 C 177.226562 159.824219 177.292969 160.367188 177 160.738281 C 176.828125 160.957031 176.578125 161.070312 176.320312 161.070312 C 176.132812 161.070312 175.949219 161.007812 175.789062 160.882812 L 158.851562 147.558594 C 158.644531 147.394531 158.523438 147.144531 158.523438 146.882812 C 158.523438 146.617188 158.644531 146.367188 158.851562 146.203125 L 175.789062 132.878906 C 175.945312 132.753906 176.132812 132.695312 176.320312 132.695312 "/></g><g clip-rule="nonzero" clip-path="url(#3ea32107bd)"><path style=" stroke:none;fill-rule:nonzero;fill:#03fa6e;fill-opacity:1;" d="M 198.667969 161.707031 C 198.207031 161.707031 197.777344 161.496094 197.488281 161.136719 C 196.976562 160.484375 197.089844 159.539062 197.742188 159.027344 L 213.179688 146.882812 L 197.742188 134.734375 C 197.089844 134.222656 196.976562 133.277344 197.488281 132.628906 C 197.777344 132.261719 198.207031 132.058594 198.667969 132.058594 C 199.003906 132.058594 199.332031 132.167969 199.597656 132.378906 L 216.535156 145.703125 C 216.898438 145.988281 217.105469 146.417969 217.105469 146.882812 C 217.105469 147.34375 216.898438 147.773438 216.53125 148.058594 L 199.597656 161.386719 C 199.332031 161.59375 199.003906 161.707031 198.667969 161.707031 "/></g><g clip-rule="nonzero" clip-path="url(#627997a38c)"><path style=" stroke:none;fill-rule:nonzero;fill:#004aad;fill-opacity:1;" d="M 198.667969 131.417969 C 198.007812 131.417969 197.394531 131.714844 196.988281 132.234375 C 196.257812 133.160156 196.417969 134.507812 197.34375 135.238281 L 212.144531 146.882812 L 197.34375 158.527344 C 196.417969 159.253906 196.257812 160.601562 196.988281 161.527344 C 197.394531 162.046875 198.007812 162.347656 198.667969 162.347656 C 199.148438 162.347656 199.613281 162.183594 199.988281 161.886719 L 216.929688 148.5625 C 217.445312 148.15625 217.742188 147.542969 217.742188 146.882812 C 217.742188 146.222656 217.445312 145.613281 216.929688 145.199219 L 199.992188 131.875 C 199.617188 131.578125 199.148438 131.417969 198.667969 131.417969 Z M 198.667969 132.695312 C 198.855469 132.695312 199.042969 132.753906 199.199219 132.878906 L 216.140625 146.203125 C 216.347656 146.367188 216.464844 146.617188 216.464844 146.882812 C 216.464844 147.144531 216.347656 147.394531 216.140625 147.558594 L 199.199219 160.882812 C 199.042969 161.007812 198.855469 161.070312 198.667969 161.070312 C 198.414062 161.070312 198.160156 160.957031 197.992188 160.738281 C 197.699219 160.367188 197.761719 159.824219 198.136719 159.53125 L 214.210938 146.882812 L 198.136719 134.234375 C 197.761719 133.941406 197.699219 133.398438 197.992188 133.023438 C 198.160156 132.808594 198.414062 132.695312 198.667969 132.695312 "/></g><path style=" stroke:none;fill-rule:nonzero;fill:#03fa6e;fill-opacity:1;" d="M 179.078125 169.75 C 178.890625 169.75 178.710938 169.710938 178.535156 169.644531 C 178.164062 169.5 177.867188 169.21875 177.707031 168.855469 C 177.542969 168.484375 177.535156 168.078125 177.679688 167.707031 L 194.21875 124.972656 C 194.441406 124.402344 195.003906 124.015625 195.617188 124.015625 C 195.804688 124.015625 195.988281 124.050781 196.164062 124.117188 C 196.929688 124.417969 197.316406 125.289062 197.019531 126.058594 L 180.476562 168.789062 C 180.257812 169.363281 179.691406 169.75 179.078125 169.75 "/><g clip-rule="nonzero" clip-path="url(#58bebbc9be)"><path style=" stroke:none;fill-rule:nonzero;fill:#004aad;fill-opacity:1;" d="M 195.617188 123.375 C 194.742188 123.375 193.9375 123.929688 193.625 124.742188 L 177.082031 167.472656 C 176.878906 168.007812 176.890625 168.589844 177.121094 169.113281 C 177.351562 169.632812 177.773438 170.035156 178.304688 170.242188 C 178.554688 170.339844 178.8125 170.386719 179.078125 170.386719 C 179.953125 170.386719 180.757812 169.835938 181.074219 169.019531 L 197.613281 126.289062 C 198.039062 125.1875 197.492188 123.945312 196.390625 123.523438 C 196.144531 123.425781 195.882812 123.375 195.617188 123.375 Z M 195.617188 124.652344 C 195.722656 124.652344 195.828125 124.675781 195.929688 124.714844 C 196.375 124.882812 196.59375 125.382812 196.421875 125.828125 L 179.878906 168.558594 C 179.75 168.898438 179.421875 169.109375 179.078125 169.109375 C 178.972656 169.109375 178.867188 169.089844 178.765625 169.050781 C 178.320312 168.878906 178.101562 168.378906 178.277344 167.9375 L 194.816406 125.207031 C 194.949219 124.863281 195.273438 124.652344 195.617188 124.652344 "/></g><g clip-rule="nonzero" clip-path="url(#65da56aa13)"><path style=" stroke:none;fill-rule:nonzero;fill:#0097b2;fill-opacity:1;" d="M 95.847656 222.152344 C 95.207031 219.042969 94.71875 215.894531 94.398438 212.742188 C 94.066406 209.515625 93.902344 206.332031 93.902344 203.21875 C 93.902344 192.167969 95.863281 181.273438 99.609375 171.027344 C 103.359375 160.777344 108.890625 151.183594 116.035156 142.734375 L 121.175781 147.082031 C 114.539062 154.933594 109.410156 163.828125 105.933594 173.320312 C 102.460938 182.8125 100.644531 192.921875 100.644531 203.21875 C 100.644531 206.230469 100.796875 209.183594 101.085938 212.054688 C 101.386719 215 101.835938 217.921875 102.433594 220.8125 Z M 108.492188 282.363281 C 93.546875 267.421875 83.449219 248.90625 78.75 229.113281 C 74.039062 209.328125 74.726562 188.253906 81.339844 168.1875 L 91.582031 171.554688 C 85.601562 189.691406 84.988281 208.742188 89.242188 226.628906 C 93.496094 244.511719 102.617188 261.242188 116.117188 274.742188 Z M 199.179688 314.535156 C 184.316406 316.074219 169.472656 314.617188 155.460938 310.410156 C 141.449219 306.207031 128.242188 299.230469 116.675781 289.746094 L 123.5 281.445312 C 133.910156 289.984375 145.847656 296.273438 158.535156 300.082031 C 171.234375 303.894531 184.664062 305.214844 198.082031 303.824219 Z M 75.203125 244.5 C 67.414062 223.28125 65.9375 200.765625 70.257812 179.429688 C 74.585938 158.097656 84.722656 137.9375 100.164062 121.421875 L 102.121094 123.253906 C 87.03125 139.394531 77.117188 159.097656 72.890625 179.953125 C 68.664062 200.808594 70.113281 222.820312 77.730469 243.574219 Z M 124.480469 101.464844 C 127.957031 99.308594 131.515625 97.34375 135.144531 95.574219 C 138.785156 93.796875 142.53125 92.203125 146.351562 90.796875 C 159.617188 85.925781 173.554688 83.476562 187.488281 83.460938 C 201.417969 83.449219 215.351562 85.863281 228.632812 90.703125 L 227.714844 93.230469 C 214.71875 88.496094 201.097656 86.136719 187.488281 86.148438 C 173.878906 86.164062 160.257812 88.558594 147.273438 93.328125 C 143.554688 94.695312 139.890625 96.253906 136.320312 97.996094 C 132.726562 99.742188 129.242188 101.667969 125.890625 103.75 Z M 244.894531 98.042969 C 251.195312 101.472656 257.171875 105.453125 262.722656 109.929688 C 268.28125 114.40625 273.445312 119.382812 278.140625 124.804688 L 276.109375 126.558594 C 271.519531 121.265625 266.472656 116.402344 261.035156 112.027344 C 255.59375 107.644531 249.761719 103.75 243.609375 100.402344 Z M 288.375 138.46875 C 290.75 142.160156 292.914062 145.972656 294.859375 149.878906 C 296.8125 153.796875 298.546875 157.824219 300.058594 161.949219 C 311.292969 192.546875 309.257812 224.835938 296.820312 252.433594 C 284.382812 280.03125 261.539062 302.941406 231.179688 314.792969 L 230.199219 312.289062 C 259.878906 300.703125 282.210938 278.308594 294.371094 251.328125 C 306.53125 224.351562 308.515625 192.792969 297.535156 162.882812 C 296.058594 158.859375 294.355469 154.921875 292.453125 151.089844 C 290.546875 147.25 288.421875 143.523438 286.117188 139.929688 Z M 191.878906 322.902344 C 169.996094 323.679688 148.765625 318.449219 130.222656 308.324219 C 111.675781 298.191406 95.808594 283.152344 84.636719 264.324219 L 86.949219 262.957031 C 97.871094 281.363281 113.382812 296.0625 131.507812 305.960938 C 149.636719 315.863281 170.390625 320.972656 191.78125 320.214844 Z M 107.054688 308.710938 C 87.144531 293.503906 72.359375 273.320312 63.710938 250.785156 C 55.0625 228.257812 52.546875 203.367188 57.160156 178.75 L 63.773438 179.988281 C 59.390625 203.378906 61.773438 227.003906 69.984375 248.390625 C 78.191406 269.769531 92.230469 288.917969 111.136719 303.363281 Z M 68.03125 145.625 C 69.984375 141.578125 72.140625 137.617188 74.496094 133.785156 C 76.851562 129.949219 79.410156 126.21875 82.144531 122.640625 C 91.65625 110.1875 103.230469 99.609375 116.261719 91.308594 C 129.277344 83.003906 143.742188 76.96875 159.054688 73.59375 L 160.503906 80.15625 C 145.96875 83.359375 132.230469 89.089844 119.875 96.96875 C 107.523438 104.847656 96.535156 114.882812 87.5 126.722656 C 84.898438 130.125 82.476562 133.648438 80.246094 137.289062 C 78.015625 140.921875 75.960938 144.6875 74.101562 148.550781 Z M 178.617188 70.777344 C 186.542969 70.242188 194.488281 70.410156 202.355469 71.289062 C 210.226562 72.167969 218.027344 73.746094 225.625 76.015625 L 223.699219 82.476562 C 216.46875 80.316406 209.070312 78.8125 201.613281 77.984375 C 194.144531 77.152344 186.589844 76.984375 179.066406 77.5 Z M 243.324219 82.714844 C 247.753906 84.761719 252.046875 87.039062 256.183594 89.53125 C 260.316406 92.019531 264.328125 94.757812 268.214844 97.722656 C 296.933594 119.660156 314.238281 151.070312 319.027344 184.273438 C 323.8125 217.480469 316.082031 252.492188 294.730469 281.644531 L 289.308594 277.667969 C 309.570312 249.996094 316.914062 216.75 312.359375 185.21875 C 307.816406 153.695312 291.390625 123.878906 264.132812 103.066406 C 260.492188 100.28125 256.675781 97.6875 252.707031 95.292969 C 248.746094 92.90625 244.671875 90.742188 240.5 88.816406 Z M 262.8125 312.621094 C 242.800781 326.375 219.835938 334.117188 196.484375 335.675781 C 173.117188 337.234375 149.328125 332.621094 127.679688 321.660156 L 130.707031 315.652344 C 151.261719 326.054688 173.847656 330.441406 196.035156 328.960938 C 218.230469 327.476562 240.039062 320.132812 259.015625 307.089844 Z M 94.148438 141.726562 C 96.257812 138.523438 98.503906 135.453125 100.875 132.546875 C 103.339844 129.527344 105.882812 126.695312 108.496094 124.082031 C 117.832031 114.746094 128.691406 107.207031 140.523438 101.71875 C 152.335938 96.234375 165.101562 92.808594 178.261719 91.703125 L 179.144531 102.445312 C 167.230469 103.445312 155.691406 106.542969 145.03125 111.496094 C 134.386719 116.433594 124.582031 123.253906 116.117188 131.710938 C 113.621094 134.207031 111.316406 136.753906 109.210938 139.332031 C 107.019531 142.019531 104.980469 144.796875 103.121094 147.625 Z M 94.148438 141.726562 "/></g><g style="fill:#d9d9d9;fill-opacity:1;"><g transform="translate(142.68339, 216.116295)"><path style="stroke:none" d="M 8.734375 0 L 2.28125 0 L 2.28125 -33.59375 L 17.484375 -33.59375 C 19.691406 -33.59375 21.546875 -33.300781 23.046875 -32.71875 C 24.554688 -32.144531 25.78125 -31.363281 26.71875 -30.375 C 27.65625 -29.394531 28.332031 -28.273438 28.75 -27.015625 C 29.164062 -25.765625 29.375 -24.460938 29.375 -23.109375 L 29.375 -23.078125 C 29.375 -21.109375 28.960938 -19.289062 28.140625 -17.625 C 27.328125 -15.957031 26.050781 -14.625 24.3125 -13.625 C 22.570312 -12.632812 20.296875 -12.140625 17.484375 -12.140625 L 8.734375 -12.140625 Z M 8.734375 -27.546875 L 8.734375 -17.859375 L 16.8125 -17.859375 C 18.695312 -17.859375 20.15625 -18.234375 21.1875 -18.984375 C 22.21875 -19.742188 22.734375 -20.953125 22.734375 -22.609375 L 22.734375 -22.65625 C 22.734375 -24.34375 22.222656 -25.578125 21.203125 -26.359375 C 20.179688 -27.148438 18.71875 -27.546875 16.8125 -27.546875 Z M 8.734375 -27.546875 "/></g></g><g style="fill:#d9d9d9;fill-opacity:1;"><g transform="translate(171.921326, 216.116295)"><path style="stroke:none" d="M 8.78125 0 L 2.234375 0 L 2.234375 -33.59375 L 8.78125 -33.59375 L 8.78125 -20.171875 L 23.359375 -20.171875 L 23.359375 -33.59375 L 29.859375 -33.59375 L 29.859375 0 L 23.359375 0 L 23.359375 -14.078125 L 8.78125 -14.078125 Z M 8.78125 0 "/></g></g><g style="fill:#d9d9d9;fill-opacity:1;"><g transform="translate(202.484511, 216.116295)"><path style="stroke:none" d="M 15.65625 -6.375 L 24.03125 -33.59375 L 30.984375 -33.59375 L 20.375 0 L 10.9375 0 L 0.421875 -33.59375 L 7.421875 -33.59375 Z M 15.65625 -6.375 "/></g></g><g style="fill:#03fa6e;fill-opacity:1;"><g transform="translate(103.630859, 245.299906)"><path style="stroke:none" d="M 5.640625 0.25 C 3.953125 0.25 2.332031 -0.0703125 0.78125 -0.71875 L 1.609375 -2.921875 C 2.253906 -2.640625 2.90625 -2.429688 3.5625 -2.296875 C 4.21875 -2.171875 4.816406 -2.109375 5.359375 -2.109375 C 6.015625 -2.109375 6.546875 -2.171875 6.953125 -2.296875 C 7.359375 -2.429688 7.5625 -2.695312 7.5625 -3.09375 C 7.5625 -3.394531 7.429688 -3.628906 7.171875 -3.796875 C 6.921875 -3.972656 6.390625 -4.171875 5.578125 -4.390625 L 4.546875 -4.65625 C 3.390625 -4.957031 2.539062 -5.390625 2 -5.953125 C 1.457031 -6.523438 1.1875 -7.265625 1.1875 -8.171875 C 1.1875 -9.203125 1.570312 -10.007812 2.34375 -10.59375 C 3.125 -11.175781 4.234375 -11.46875 5.671875 -11.46875 C 6.503906 -11.46875 7.320312 -11.378906 8.125 -11.203125 C 8.925781 -11.023438 9.609375 -10.789062 10.171875 -10.5 L 9.296875 -8.359375 C 8.804688 -8.617188 8.257812 -8.804688 7.65625 -8.921875 C 7.050781 -9.035156 6.515625 -9.09375 6.046875 -9.09375 C 5.492188 -9.09375 5.054688 -9.03125 4.734375 -8.90625 C 4.421875 -8.789062 4.265625 -8.578125 4.265625 -8.265625 C 4.265625 -7.984375 4.410156 -7.757812 4.703125 -7.59375 C 4.992188 -7.425781 5.472656 -7.25 6.140625 -7.0625 L 6.921875 -6.84375 C 8.171875 -6.5 9.085938 -6.046875 9.671875 -5.484375 C 10.265625 -4.921875 10.5625 -4.203125 10.5625 -3.328125 C 10.5625 -0.941406 8.921875 0.25 5.640625 0.25 Z M 5.640625 0.25 "/></g></g><g style="fill:#03fa6e;fill-opacity:1;"><g transform="translate(114.226531, 245.299906)"><path style="stroke:none" d="M 2.5625 -12.484375 C 2.144531 -12.484375 1.785156 -12.59375 1.484375 -12.8125 C 1.179688 -13.03125 1.03125 -13.367188 1.03125 -13.828125 C 1.03125 -14.234375 1.175781 -14.554688 1.46875 -14.796875 C 1.757812 -15.035156 2.125 -15.15625 2.5625 -15.15625 C 3.007812 -15.15625 3.375 -15.035156 3.65625 -14.796875 C 3.9375 -14.554688 4.078125 -14.234375 4.078125 -13.828125 C 4.078125 -13.367188 3.925781 -13.03125 3.625 -12.8125 C 3.332031 -12.59375 2.976562 -12.484375 2.5625 -12.484375 Z M 4.09375 0 L 1.03125 0 L 1.03125 -11.046875 L 4.09375 -11.046875 Z M 4.09375 0 "/></g></g><g style="fill:#03fa6e;fill-opacity:1;"><g transform="translate(118.629965, 245.299906)"><path style="stroke:none" d="M 5.640625 0.25 C 3.953125 0.25 2.332031 -0.0703125 0.78125 -0.71875 L 1.609375 -2.921875 C 2.253906 -2.640625 2.90625 -2.429688 3.5625 -2.296875 C 4.21875 -2.171875 4.816406 -2.109375 5.359375 -2.109375 C 6.015625 -2.109375 6.546875 -2.171875 6.953125 -2.296875 C 7.359375 -2.429688 7.5625 -2.695312 7.5625 -3.09375 C 7.5625 -3.394531 7.429688 -3.628906 7.171875 -3.796875 C 6.921875 -3.972656 6.390625 -4.171875 5.578125 -4.390625 L 4.546875 -4.65625 C 3.390625 -4.957031 2.539062 -5.390625 2 -5.953125 C 1.457031 -6.523438 1.1875 -7.265625 1.1875 -8.171875 C 1.1875 -9.203125 1.570312 -10.007812 2.34375 -10.59375 C 3.125 -11.175781 4.234375 -11.46875 5.671875 -11.46875 C 6.503906 -11.46875 7.320312 -11.378906 8.125 -11.203125 C 8.925781 -11.023438 9.609375 -10.789062 10.171875 -10.5 L 9.296875 -8.359375 C 8.804688 -8.617188 8.257812 -8.804688 7.65625 -8.921875 C 7.050781 -9.035156 6.515625 -9.09375 6.046875 -9.09375 C 5.492188 -9.09375 5.054688 -9.03125 4.734375 -8.90625 C 4.421875 -8.789062 4.265625 -8.578125 4.265625 -8.265625 C 4.265625 -7.984375 4.410156 -7.757812 4.703125 -7.59375 C 4.992188 -7.425781 5.472656 -7.25 6.140625 -7.0625 L 6.921875 -6.84375 C 8.171875 -6.5 9.085938 -6.046875 9.671875 -5.484375 C 10.265625 -4.921875 10.5625 -4.203125 10.5625 -3.328125 C 10.5625 -0.941406 8.921875 0.25 5.640625 0.25 Z M 5.640625 0.25 "/></g></g><g style="fill:#03fa6e;fill-opacity:1;"><g transform="translate(129.225637, 245.299906)"><path style="stroke:none" d="M 9.484375 0 L 5.984375 0 C 4.660156 0 3.726562 -0.296875 3.1875 -0.890625 C 2.65625 -1.484375 2.390625 -2.382812 2.390625 -3.59375 L 2.390625 -8.234375 L 0.4375 -8.234375 L 0.4375 -11.046875 L 2.390625 -11.046875 L 2.390625 -14.421875 L 5.4375 -14.421875 L 5.4375 -11.046875 L 9.46875 -11.046875 L 9.46875 -8.234375 L 5.4375 -8.234375 L 5.4375 -4.5625 C 5.4375 -3.945312 5.585938 -3.503906 5.890625 -3.234375 C 6.203125 -2.960938 6.6875 -2.828125 7.34375 -2.828125 L 9.484375 -2.828125 Z M 9.484375 0 "/></g></g><g style="fill:#03fa6e;fill-opacity:1;"><g transform="translate(138.782861, 245.299906)"><path style="stroke:none" d="M 12.21875 -5.15625 L 12.21875 -4.890625 L 3.9375 -4.890625 C 4.09375 -4.179688 4.4375 -3.585938 4.96875 -3.109375 C 5.5 -2.628906 6.179688 -2.390625 7.015625 -2.390625 C 7.703125 -2.390625 8.328125 -2.492188 8.890625 -2.703125 C 9.460938 -2.910156 9.945312 -3.15625 10.34375 -3.4375 L 11.671875 -1.078125 C 11.117188 -0.734375 10.453125 -0.421875 9.671875 -0.140625 C 8.890625 0.140625 7.960938 0.28125 6.890625 0.28125 C 5.660156 0.28125 4.582031 0.0351562 3.65625 -0.453125 C 2.738281 -0.941406 2.023438 -1.628906 1.515625 -2.515625 C 1.015625 -3.398438 0.765625 -4.425781 0.765625 -5.59375 L 0.765625 -5.609375 C 0.765625 -6.765625 1 -7.78125 1.46875 -8.65625 C 1.945312 -9.539062 2.613281 -10.234375 3.46875 -10.734375 C 4.332031 -11.234375 5.347656 -11.484375 6.515625 -11.484375 C 7.703125 -11.484375 8.71875 -11.226562 9.5625 -10.71875 C 10.414062 -10.21875 11.070312 -9.492188 11.53125 -8.546875 C 11.988281 -7.609375 12.21875 -6.476562 12.21875 -5.15625 Z M 6.5 -9 C 5.832031 -9 5.273438 -8.785156 4.828125 -8.359375 C 4.390625 -7.941406 4.101562 -7.410156 3.96875 -6.765625 L 9.09375 -6.765625 C 8.976562 -7.410156 8.703125 -7.941406 8.265625 -8.359375 C 7.828125 -8.785156 7.238281 -9 6.5 -9 Z M 6.5 -9 "/></g></g><g style="fill:#03fa6e;fill-opacity:1;"><g transform="translate(151.05159, 245.299906)"><path style="stroke:none" d="M 4.09375 0 L 1.03125 0 L 1.03125 -10.921875 C 1.664062 -11.035156 2.289062 -11.132812 2.90625 -11.21875 C 3.53125 -11.300781 4.101562 -11.367188 4.625 -11.421875 C 5.144531 -11.472656 5.566406 -11.5 5.890625 -11.5 C 6.585938 -11.5 7.226562 -11.382812 7.8125 -11.15625 C 8.394531 -10.9375 8.863281 -10.554688 9.21875 -10.015625 C 9.613281 -10.546875 10.125 -10.925781 10.75 -11.15625 C 11.375 -11.382812 12.085938 -11.5 12.890625 -11.5 C 13.847656 -11.5 14.671875 -11.359375 15.359375 -11.078125 C 16.046875 -10.804688 16.570312 -10.359375 16.9375 -9.734375 C 17.3125 -9.117188 17.5 -8.28125 17.5 -7.21875 L 17.5 0 L 14.4375 0 L 14.4375 -6.859375 C 14.4375 -7.441406 14.316406 -7.90625 14.078125 -8.25 C 13.847656 -8.59375 13.351562 -8.765625 12.59375 -8.765625 C 11.851562 -8.765625 11.359375 -8.59375 11.109375 -8.25 C 10.867188 -7.90625 10.75 -7.441406 10.75 -6.859375 L 10.75 0 L 7.71875 0 L 7.71875 -6.859375 C 7.71875 -7.566406 7.539062 -8.0625 7.1875 -8.34375 C 6.832031 -8.625 6.351562 -8.765625 5.75 -8.765625 C 5.507812 -8.765625 5.25 -8.75 4.96875 -8.71875 C 4.695312 -8.6875 4.40625 -8.640625 4.09375 -8.578125 Z M 4.09375 0 "/></g></g><g style="fill:#03fa6e;fill-opacity:1;"><g transform="translate(168.858722, 245.299906)"><path style="stroke:none" d="M 6.1875 -11.421875 C 7.21875 -11.421875 8.109375 -11.28125 8.859375 -11 C 9.617188 -10.726562 10.207031 -10.273438 10.625 -9.640625 C 11.039062 -9.003906 11.25 -8.144531 11.25 -7.0625 L 11.25 -0.234375 C 10.5 -0.0664062 9.664062 0.0625 8.75 0.15625 C 7.84375 0.257812 7.007812 0.3125 6.25 0.3125 C 5.125 0.3125 4.148438 0.195312 3.328125 -0.03125 C 2.503906 -0.269531 1.867188 -0.648438 1.421875 -1.171875 C 0.984375 -1.703125 0.765625 -2.394531 0.765625 -3.25 L 0.765625 -3.296875 C 0.765625 -4.472656 1.207031 -5.335938 2.09375 -5.890625 C 2.976562 -6.441406 4.175781 -6.71875 5.6875 -6.71875 C 6.101562 -6.71875 6.507812 -6.707031 6.90625 -6.6875 C 7.3125 -6.664062 7.738281 -6.625 8.1875 -6.5625 L 8.1875 -6.96875 C 8.1875 -7.65625 7.957031 -8.140625 7.5 -8.421875 C 7.039062 -8.703125 6.390625 -8.84375 5.546875 -8.84375 C 4.992188 -8.84375 4.359375 -8.773438 3.640625 -8.640625 C 2.921875 -8.503906 2.257812 -8.316406 1.65625 -8.078125 L 2.328125 -10.796875 C 2.609375 -10.910156 2.957031 -11.015625 3.375 -11.109375 C 3.800781 -11.203125 4.257812 -11.273438 4.75 -11.328125 C 5.25 -11.390625 5.726562 -11.421875 6.1875 -11.421875 Z M 3.90625 -3.4375 L 3.90625 -3.40625 C 3.90625 -2.925781 4.117188 -2.582031 4.546875 -2.375 C 4.972656 -2.175781 5.578125 -2.078125 6.359375 -2.078125 C 6.898438 -2.078125 7.507812 -2.128906 8.1875 -2.234375 L 8.1875 -4.609375 C 7.882812 -4.660156 7.566406 -4.695312 7.234375 -4.71875 C 6.898438 -4.75 6.609375 -4.765625 6.359375 -4.765625 C 5.597656 -4.765625 5 -4.664062 4.5625 -4.46875 C 4.125 -4.269531 3.90625 -3.925781 3.90625 -3.4375 Z M 3.90625 -3.4375 "/></g></g><g style="fill:#03fa6e;fill-opacity:1;"><g transform="translate(180.377463, 245.299906)"><path style="stroke:none" d="M 5.640625 0.25 C 3.953125 0.25 2.332031 -0.0703125 0.78125 -0.71875 L 1.609375 -2.921875 C 2.253906 -2.640625 2.90625 -2.429688 3.5625 -2.296875 C 4.21875 -2.171875 4.816406 -2.109375 5.359375 -2.109375 C 6.015625 -2.109375 6.546875 -2.171875 6.953125 -2.296875 C 7.359375 -2.429688 7.5625 -2.695312 7.5625 -3.09375 C 7.5625 -3.394531 7.429688 -3.628906 7.171875 -3.796875 C 6.921875 -3.972656 6.390625 -4.171875 5.578125 -4.390625 L 4.546875 -4.65625 C 3.390625 -4.957031 2.539062 -5.390625 2 -5.953125 C 1.457031 -6.523438 1.1875 -7.265625 1.1875 -8.171875 C 1.1875 -9.203125 1.570312 -10.007812 2.34375 -10.59375 C 3.125 -11.175781 4.234375 -11.46875 5.671875 -11.46875 C 6.503906 -11.46875 7.320312 -11.378906 8.125 -11.203125 C 8.925781 -11.023438 9.609375 -10.789062 10.171875 -10.5 L 9.296875 -8.359375 C 8.804688 -8.617188 8.257812 -8.804688 7.65625 -8.921875 C 7.050781 -9.035156 6.515625 -9.09375 6.046875 -9.09375 C 5.492188 -9.09375 5.054688 -9.03125 4.734375 -8.90625 C 4.421875 -8.789062 4.265625 -8.578125 4.265625 -8.265625 C 4.265625 -7.984375 4.410156 -7.757812 4.703125 -7.59375 C 4.992188 -7.425781 5.472656 -7.25 6.140625 -7.0625 L 6.921875 -6.84375 C 8.171875 -6.5 9.085938 -6.046875 9.671875 -5.484375 C 10.265625 -4.921875 10.5625 -4.203125 10.5625 -3.328125 C 10.5625 -0.941406 8.921875 0.25 5.640625 0.25 Z M 5.640625 0.25 "/></g></g><g style="fill:#03fa6e;fill-opacity:1;"><g transform="translate(190.973135, 245.299906)"><path style="stroke:none" d=""/></g></g><g style="fill:#03fa6e;fill-opacity:1;"><g transform="translate(193.491979, 245.299906)"><path style="stroke:none" d="M 12.21875 -5.15625 L 12.21875 -4.890625 L 3.9375 -4.890625 C 4.09375 -4.179688 4.4375 -3.585938 4.96875 -3.109375 C 5.5 -2.628906 6.179688 -2.390625 7.015625 -2.390625 C 7.703125 -2.390625 8.328125 -2.492188 8.890625 -2.703125 C 9.460938 -2.910156 9.945312 -3.15625 10.34375 -3.4375 L 11.671875 -1.078125 C 11.117188 -0.734375 10.453125 -0.421875 9.671875 -0.140625 C 8.890625 0.140625 7.960938 0.28125 6.890625 0.28125 C 5.660156 0.28125 4.582031 0.0351562 3.65625 -0.453125 C 2.738281 -0.941406 2.023438 -1.628906 1.515625 -2.515625 C 1.015625 -3.398438 0.765625 -4.425781 0.765625 -5.59375 L 0.765625 -5.609375 C 0.765625 -6.765625 1 -7.78125 1.46875 -8.65625 C 1.945312 -9.539062 2.613281 -10.234375 3.46875 -10.734375 C 4.332031 -11.234375 5.347656 -11.484375 6.515625 -11.484375 C 7.703125 -11.484375 8.71875 -11.226562 9.5625 -10.71875 C 10.414062 -10.21875 11.070312 -9.492188 11.53125 -8.546875 C 11.988281 -7.609375 12.21875 -6.476562 12.21875 -5.15625 Z M 6.5 -9 C 5.832031 -9 5.273438 -8.785156 4.828125 -8.359375 C 4.390625 -7.941406 4.101562 -7.410156 3.96875 -6.765625 L 9.09375 -6.765625 C 8.976562 -7.410156 8.703125 -7.941406 8.265625 -8.359375 C 7.828125 -8.785156 7.238281 -9 6.5 -9 Z M 6.5 -9 "/></g></g><g style="fill:#03fa6e;fill-opacity:1;"><g transform="translate(205.760709, 245.299906)"><path style="stroke:none" d=""/></g></g><g style="fill:#03fa6e;fill-opacity:1;"><g transform="translate(208.279553, 245.299906)"><path style="stroke:none" d="M 2.5625 -12.484375 C 2.144531 -12.484375 1.785156 -12.59375 1.484375 -12.8125 C 1.179688 -13.03125 1.03125 -13.367188 1.03125 -13.828125 C 1.03125 -14.234375 1.175781 -14.554688 1.46875 -14.796875 C 1.757812 -15.035156 2.125 -15.15625 2.5625 -15.15625 C 3.007812 -15.15625 3.375 -15.035156 3.65625 -14.796875 C 3.9375 -14.554688 4.078125 -14.234375 4.078125 -13.828125 C 4.078125 -13.367188 3.925781 -13.03125 3.625 -12.8125 C 3.332031 -12.59375 2.976562 -12.484375 2.5625 -12.484375 Z M 4.09375 0 L 1.03125 0 L 1.03125 -11.046875 L 4.09375 -11.046875 Z M 4.09375 0 "/></g></g><g style="fill:#03fa6e;fill-opacity:1;"><g transform="translate(212.682988, 245.299906)"><path style="stroke:none" d="M 4.09375 0 L 1.03125 0 L 1.03125 -10.90625 C 1.65625 -11.019531 2.289062 -11.117188 2.9375 -11.203125 C 3.582031 -11.285156 4.1875 -11.351562 4.75 -11.40625 C 5.320312 -11.457031 5.796875 -11.484375 6.171875 -11.484375 C 7.085938 -11.484375 7.929688 -11.359375 8.703125 -11.109375 C 9.484375 -10.859375 10.101562 -10.421875 10.5625 -9.796875 C 11.03125 -9.171875 11.265625 -8.3125 11.265625 -7.21875 L 11.265625 0 L 8.234375 0 L 8.234375 -6.84375 C 8.234375 -7.539062 8.046875 -8.03125 7.671875 -8.3125 C 7.296875 -8.601562 6.753906 -8.75 6.046875 -8.75 C 5.773438 -8.75 5.472656 -8.734375 5.140625 -8.703125 C 4.804688 -8.671875 4.457031 -8.625 4.09375 -8.5625 Z M 4.09375 0 "/></g></g><g style="fill:#03fa6e;fill-opacity:1;"><g transform="translate(224.278644, 245.299906)"><path style="stroke:none" d="M 6.90625 0.3125 C 5.707031 0.3125 4.644531 0.0546875 3.71875 -0.453125 C 2.800781 -0.972656 2.082031 -1.675781 1.5625 -2.5625 C 1.039062 -3.457031 0.78125 -4.46875 0.78125 -5.59375 L 0.78125 -5.609375 C 0.78125 -6.742188 1.039062 -7.753906 1.5625 -8.640625 C 2.082031 -9.523438 2.800781 -10.21875 3.71875 -10.71875 C 4.632812 -11.226562 5.695312 -11.484375 6.90625 -11.484375 C 8.113281 -11.484375 9.175781 -11.226562 10.09375 -10.71875 C 11.019531 -10.21875 11.742188 -9.523438 12.265625 -8.640625 C 12.785156 -7.753906 13.046875 -6.742188 13.046875 -5.609375 L 13.046875 -5.59375 C 13.046875 -4.46875 12.785156 -3.457031 12.265625 -2.5625 C 11.742188 -1.675781 11.019531 -0.972656 10.09375 -0.453125 C 9.175781 0.0546875 8.113281 0.3125 6.90625 0.3125 Z M 6.90625 -2.421875 C 7.519531 -2.421875 8.050781 -2.5625 8.5 -2.84375 C 8.957031 -3.125 9.316406 -3.503906 9.578125 -3.984375 C 9.835938 -4.472656 9.96875 -5.007812 9.96875 -5.59375 L 9.96875 -5.640625 C 9.96875 -6.222656 9.84375 -6.75 9.59375 -7.21875 C 9.34375 -7.6875 8.988281 -8.054688 8.53125 -8.328125 C 8.070312 -8.609375 7.53125 -8.75 6.90625 -8.75 C 6.289062 -8.75 5.753906 -8.609375 5.296875 -8.328125 C 4.835938 -8.054688 4.476562 -7.6875 4.21875 -7.21875 C 3.96875 -6.75 3.84375 -6.222656 3.84375 -5.640625 L 3.84375 -5.59375 C 3.84375 -5.007812 3.96875 -4.472656 4.21875 -3.984375 C 4.476562 -3.503906 4.835938 -3.125 5.296875 -2.84375 C 5.765625 -2.5625 6.300781 -2.421875 6.90625 -2.421875 Z M 6.90625 -2.421875 "/></g></g><g style="fill:#03fa6e;fill-opacity:1;"><g transform="translate(237.355052, 245.299906)"><path style="stroke:none" d="M 6.09375 -2.15625 L 8.765625 -11.046875 L 11.96875 -11.046875 L 8.1875 0 L 4 0 L 0.234375 -11.046875 L 3.421875 -11.046875 Z M 6.09375 -2.15625 "/></g></g><g style="fill:#03fa6e;fill-opacity:1;"><g transform="translate(248.816103, 245.299906)"><path style="stroke:none" d="M 6.1875 -11.421875 C 7.21875 -11.421875 8.109375 -11.28125 8.859375 -11 C 9.617188 -10.726562 10.207031 -10.273438 10.625 -9.640625 C 11.039062 -9.003906 11.25 -8.144531 11.25 -7.0625 L 11.25 -0.234375 C 10.5 -0.0664062 9.664062 0.0625 8.75 0.15625 C 7.84375 0.257812 7.007812 0.3125 6.25 0.3125 C 5.125 0.3125 4.148438 0.195312 3.328125 -0.03125 C 2.503906 -0.269531 1.867188 -0.648438 1.421875 -1.171875 C 0.984375 -1.703125 0.765625 -2.394531 0.765625 -3.25 L 0.765625 -3.296875 C 0.765625 -4.472656 1.207031 -5.335938 2.09375 -5.890625 C 2.976562 -6.441406 4.175781 -6.71875 5.6875 -6.71875 C 6.101562 -6.71875 6.507812 -6.707031 6.90625 -6.6875 C 7.3125 -6.664062 7.738281 -6.625 8.1875 -6.5625 L 8.1875 -6.96875 C 8.1875 -7.65625 7.957031 -8.140625 7.5 -8.421875 C 7.039062 -8.703125 6.390625 -8.84375 5.546875 -8.84375 C 4.992188 -8.84375 4.359375 -8.773438 3.640625 -8.640625 C 2.921875 -8.503906 2.257812 -8.316406 1.65625 -8.078125 L 2.328125 -10.796875 C 2.609375 -10.910156 2.957031 -11.015625 3.375 -11.109375 C 3.800781 -11.203125 4.257812 -11.273438 4.75 -11.328125 C 5.25 -11.390625 5.726562 -11.421875 6.1875 -11.421875 Z M 3.90625 -3.4375 L 3.90625 -3.40625 C 3.90625 -2.925781 4.117188 -2.582031 4.546875 -2.375 C 4.972656 -2.175781 5.578125 -2.078125 6.359375 -2.078125 C 6.898438 -2.078125 7.507812 -2.128906 8.1875 -2.234375 L 8.1875 -4.609375 C 7.882812 -4.660156 7.566406 -4.695312 7.234375 -4.71875 C 6.898438 -4.75 6.609375 -4.765625 6.359375 -4.765625 C 5.597656 -4.765625 5 -4.664062 4.5625 -4.46875 C 4.125 -4.269531 3.90625 -3.925781 3.90625 -3.4375 Z M 3.90625 -3.4375 "/></g></g><g style="fill:#03fa6e;fill-opacity:1;"><g transform="translate(260.334844, 245.299906)"><path style="stroke:none" d="M 9.390625 -2.890625 L 10.578125 -0.609375 C 10.085938 -0.328125 9.519531 -0.113281 8.875 0.03125 C 8.238281 0.175781 7.601562 0.257812 6.96875 0.28125 L 6.515625 0.890625 L 6.84375 0.890625 C 7.519531 0.890625 8.03125 1.046875 8.375 1.359375 C 8.726562 1.671875 8.90625 2.070312 8.90625 2.5625 L 8.90625 2.59375 C 8.90625 3.09375 8.703125 3.488281 8.296875 3.78125 C 7.890625 4.082031 7.351562 4.234375 6.6875 4.234375 C 6.332031 4.234375 6.023438 4.207031 5.765625 4.15625 C 5.515625 4.101562 5.335938 4.050781 5.234375 4 L 4.671875 2.5625 C 4.847656 2.625 5.066406 2.679688 5.328125 2.734375 C 5.597656 2.785156 5.859375 2.828125 6.109375 2.859375 C 6.359375 2.890625 6.550781 2.90625 6.6875 2.90625 C 6.96875 2.90625 7.15625 2.859375 7.25 2.765625 C 7.351562 2.679688 7.40625 2.585938 7.40625 2.484375 L 7.40625 2.46875 C 7.40625 2.363281 7.351562 2.269531 7.25 2.1875 C 7.15625 2.101562 6.960938 2.0625 6.671875 2.0625 C 6.585938 2.0625 6.4375 2.066406 6.21875 2.078125 C 6.007812 2.085938 5.796875 2.117188 5.578125 2.171875 L 4.921875 1.4375 L 5.921875 0.25 C 4.878906 0.132812 3.96875 -0.179688 3.1875 -0.703125 C 2.414062 -1.222656 1.816406 -1.898438 1.390625 -2.734375 C 0.972656 -3.566406 0.765625 -4.515625 0.765625 -5.578125 L 0.765625 -5.609375 C 0.765625 -6.765625 1.007812 -7.78125 1.5 -8.65625 C 2 -9.539062 2.703125 -10.234375 3.609375 -10.734375 C 4.515625 -11.234375 5.566406 -11.484375 6.765625 -11.484375 C 7.429688 -11.484375 8.101562 -11.398438 8.78125 -11.234375 C 9.46875 -11.066406 10.070312 -10.835938 10.59375 -10.546875 L 9.390625 -8.265625 C 9.015625 -8.472656 8.617188 -8.632812 8.203125 -8.75 C 7.796875 -8.863281 7.367188 -8.921875 6.921875 -8.921875 C 5.953125 -8.921875 5.195312 -8.609375 4.65625 -7.984375 C 4.113281 -7.367188 3.84375 -6.578125 3.84375 -5.609375 L 3.84375 -5.578125 C 3.84375 -4.628906 4.113281 -3.835938 4.65625 -3.203125 C 5.195312 -2.566406 5.953125 -2.25 6.921875 -2.25 C 7.367188 -2.25 7.796875 -2.300781 8.203125 -2.40625 C 8.609375 -2.519531 9.003906 -2.679688 9.390625 -2.890625 Z M 9.390625 -2.890625 "/></g></g><g style="fill:#03fa6e;fill-opacity:1;"><g transform="translate(270.661293, 245.299906)"><path style="stroke:none" d="M 5.359375 -13.140625 C 5.128906 -13.140625 4.960938 -13.082031 4.859375 -12.96875 C 4.765625 -12.851562 4.695312 -12.660156 4.65625 -12.390625 L 2.609375 -12.390625 C 2.640625 -13.222656 2.796875 -13.890625 3.078125 -14.390625 C 3.367188 -14.890625 3.921875 -15.140625 4.734375 -15.140625 C 5.128906 -15.140625 5.488281 -15.070312 5.8125 -14.9375 C 6.132812 -14.8125 6.441406 -14.6875 6.734375 -14.5625 C 7.023438 -14.4375 7.328125 -14.375 7.640625 -14.375 C 7.859375 -14.375 8.015625 -14.429688 8.109375 -14.546875 C 8.203125 -14.671875 8.273438 -14.863281 8.328125 -15.125 L 10.390625 -15.125 C 10.347656 -14.300781 10.1875 -13.640625 9.90625 -13.140625 C 9.632812 -12.640625 9.085938 -12.390625 8.265625 -12.390625 C 7.878906 -12.390625 7.523438 -12.453125 7.203125 -12.578125 C 6.878906 -12.703125 6.566406 -12.828125 6.265625 -12.953125 C 5.960938 -13.078125 5.660156 -13.140625 5.359375 -13.140625 Z M 6.1875 -11.421875 C 7.21875 -11.421875 8.109375 -11.28125 8.859375 -11 C 9.617188 -10.726562 10.207031 -10.273438 10.625 -9.640625 C 11.039062 -9.003906 11.25 -8.144531 11.25 -7.0625 L 11.25 -0.234375 C 10.5 -0.0664062 9.664062 0.0625 8.75 0.15625 C 7.84375 0.257812 7.007812 0.3125 6.25 0.3125 C 5.125 0.3125 4.148438 0.195312 3.328125 -0.03125 C 2.503906 -0.269531 1.867188 -0.648438 1.421875 -1.171875 C 0.984375 -1.703125 0.765625 -2.394531 0.765625 -3.25 L 0.765625 -3.296875 C 0.765625 -4.472656 1.207031 -5.335938 2.09375 -5.890625 C 2.976562 -6.441406 4.175781 -6.71875 5.6875 -6.71875 C 6.101562 -6.71875 6.507812 -6.707031 6.90625 -6.6875 C 7.3125 -6.664062 7.738281 -6.625 8.1875 -6.5625 L 8.1875 -6.96875 C 8.1875 -7.65625 7.957031 -8.140625 7.5 -8.421875 C 7.039062 -8.703125 6.390625 -8.84375 5.546875 -8.84375 C 4.992188 -8.84375 4.359375 -8.773438 3.640625 -8.640625 C 2.921875 -8.503906 2.257812 -8.316406 1.65625 -8.078125 L 2.328125 -10.796875 C 2.609375 -10.910156 2.957031 -11.015625 3.375 -11.109375 C 3.800781 -11.203125 4.257812 -11.273438 4.75 -11.328125 C 5.25 -11.390625 5.726562 -11.421875 6.1875 -11.421875 Z M 3.90625 -3.4375 L 3.90625 -3.40625 C 3.90625 -2.925781 4.117188 -2.582031 4.546875 -2.375 C 4.972656 -2.175781 5.578125 -2.078125 6.359375 -2.078125 C 6.898438 -2.078125 7.507812 -2.128906 8.1875 -2.234375 L 8.1875 -4.609375 C 7.882812 -4.660156 7.566406 -4.695312 7.234375 -4.71875 C 6.898438 -4.75 6.609375 -4.765625 6.359375 -4.765625 C 5.597656 -4.765625 5 -4.664062 4.5625 -4.46875 C 4.125 -4.269531 3.90625 -3.925781 3.90625 -3.4375 Z M 3.90625 -3.4375 "/></g></g><g style="fill:#03fa6e;fill-opacity:1;"><g transform="translate(282.180034, 245.299906)"><path style="stroke:none" d="M 6.90625 0.3125 C 5.707031 0.3125 4.644531 0.0546875 3.71875 -0.453125 C 2.800781 -0.972656 2.082031 -1.675781 1.5625 -2.5625 C 1.039062 -3.457031 0.78125 -4.46875 0.78125 -5.59375 L 0.78125 -5.609375 C 0.78125 -6.742188 1.039062 -7.753906 1.5625 -8.640625 C 2.082031 -9.523438 2.800781 -10.21875 3.71875 -10.71875 C 4.632812 -11.226562 5.695312 -11.484375 6.90625 -11.484375 C 8.113281 -11.484375 9.175781 -11.226562 10.09375 -10.71875 C 11.019531 -10.21875 11.742188 -9.523438 12.265625 -8.640625 C 12.785156 -7.753906 13.046875 -6.742188 13.046875 -5.609375 L 13.046875 -5.59375 C 13.046875 -4.46875 12.785156 -3.457031 12.265625 -2.5625 C 11.742188 -1.675781 11.019531 -0.972656 10.09375 -0.453125 C 9.175781 0.0546875 8.113281 0.3125 6.90625 0.3125 Z M 6.90625 -2.421875 C 7.519531 -2.421875 8.050781 -2.5625 8.5 -2.84375 C 8.957031 -3.125 9.316406 -3.503906 9.578125 -3.984375 C 9.835938 -4.472656 9.96875 -5.007812 9.96875 -5.59375 L 9.96875 -5.640625 C 9.96875 -6.222656 9.84375 -6.75 9.59375 -7.21875 C 9.34375 -7.6875 8.988281 -8.054688 8.53125 -8.328125 C 8.070312 -8.609375 7.53125 -8.75 6.90625 -8.75 C 6.289062 -8.75 5.753906 -8.609375 5.296875 -8.328125 C 4.835938 -8.054688 4.476562 -7.6875 4.21875 -7.21875 C 3.96875 -6.75 3.84375 -6.222656 3.84375 -5.640625 L 3.84375 -5.59375 C 3.84375 -5.007812 3.96875 -4.472656 4.21875 -3.984375 C 4.476562 -3.503906 4.835938 -3.125 5.296875 -2.84375 C 5.765625 -2.5625 6.300781 -2.421875 6.90625 -2.421875 Z M 6.90625 -2.421875 "/></g></g></g></svg>